#!OML:ASF G:\JayActor3\Patient Classification 1\Patient 1\Session 5\male.ASF
:FULLY-SPECIFIED
:DEGREES
1208
root 67.2899 16.4728 -5.1043 -1452.5 -93.5193 1465.57
lowerback 19.0306 -0.953758 1.77507
upperback 5.76212 -1.338 -1.10735
thorax -4.50051 -0.802398 -1.87509
lowerneck 6.22425 0.756688 2.9792
upperneck -16.8096 1.30858 0.884369
head -6.10401 0.267371 -0.294347
rclavicle -1.47101e-014 1.39149e-014
rhumerus -30.2713 -0.891688 -89.6796
rradius 33.3609
rwrist 0.0969671
rhand -21.6674 -8.67008
rfingers 7.12502
rthumb 4.72989 -38.5973
lclavicle -1.47101e-014 1.39149e-014
lhumerus -30.166 -1.7076 84.2181
lradius 30.832
lwrist 20.6022
lhand -20.8783 9.43875
lfingers 7.12502
lthumb 5.49188 39.3476
rfemur -37.9135 -0.305414 21.6698
rtibia 69.3964
rfoot 0.375267 -14.9225
rtoes 5.15189
lfemur -23.3825 12.4949 -24.8889
ltibia 21.5459
lfoot -5.13032 -7.62839
ltoes -6.23109
1209
root 67.3452 16.465 -5.10845 -1452.37 -93.5622 1465.32
lowerback 18.9098 -0.949435 1.80397
upperback 5.74468 -1.32793 -1.13632
thorax -4.45664 -0.796149 -1.92615
lowerneck 6.20762 0.745458 2.97842
upperneck -16.791 1.29344 0.893236
head -6.0955 0.259837 -0.290245
rclavicle -2.50469e-014 -3.97569e-015
rhumerus -30.3193 -0.941455 -89.6904
rradius 33.3676
rwrist 0.105304
rhand -21.6867 -8.65905
rfingers 7.12502
rthumb 4.71131 -38.5867
lclavicle -2.50469e-014 -3.97569e-015
lhumerus -30.199 -1.70741 84.1892
lradius 30.8167
lwrist 20.644
lhand -20.8528 9.39355
lfingers 7.12502
lthumb 5.51645 39.3017
rfemur -36.659 -0.244304 21.6897
rtibia 67.807
rfoot 0.565949 -15.2953
rtoes 5.41523
lfemur -23.2574 12.6462 -24.8491
ltibia 21.1788
lfoot -5.24531 -7.95301
ltoes -6.66388
1210
root 67.4013 16.4559 -5.11424 -1452.22 -93.57 1465.06
lowerback 18.7724 -0.959592 1.81971
upperback 5.72439 -1.33836 -1.1581
thorax -4.40775 -0.799647 -1.95764
lowerneck 6.18762 0.740569 2.96073
upperneck -16.7814 1.28325 0.893645
head -6.08913 0.256158 -0.286369
rclavicle 1.19271e-015 -7.95139e-015
rhumerus -30.361 -0.966047 -89.7063
rradius 33.3777
rwrist 0.100544
rhand -21.716 -8.62333
rfingers 7.12502
rthumb 4.68301 -38.5516
lclavicle 1.19271e-015 -7.95139e-015
lhumerus -30.2198 -1.68561 84.1652
lradius 30.7796
lwrist 20.6401
lhand -20.8416 9.3521
lfingers 7.12502
lthumb 5.52727 39.26
rfemur -35.4075 -0.161336 21.7136
rtibia 66.1076
rfoot 0.0973486 -16.0174
rtoes 8.44786
lfemur -23.1657 12.8191 -24.8514
ltibia 20.8381
lfoot -5.3827 -8.23513
ltoes -7.07937
1211
root 67.457 16.4466 -5.12135 -1452.04 -93.5656 1464.77
lowerback 18.6303 -0.972105 1.82912
upperback 5.7052 -1.35286 -1.17636
thorax -4.35511 -0.805087 -1.98098
lowerneck 6.16066 0.739571 2.94228
upperneck -16.7686 1.27591 0.881013
head -6.08045 0.255014 -0.286661
rclavicle 1.03368e-014 3.4191e-014
rhumerus -30.4025 -0.976421 -89.7265
rradius 33.3946
rwrist 0.0833461
rhand -21.7455 -8.59397
rfingers 7.12502
rthumb 4.65451 -38.5228
lclavicle 1.03368e-014 3.4191e-014
lhumerus -30.245 -1.67521 84.147
lradius 30.7446
lwrist 20.6163
lhand -20.8303 9.33289
lfingers 7.12502
lthumb 5.53817 39.2405
rfemur -34.1422 -0.0338724 21.741
rtibia 64.3145
rfoot -1.62454 -17.016
rtoes 15.2969
lfemur -23.091 12.9673 -24.8545
ltibia 20.5675
lfoot -5.54185 -8.45353
ltoes -7.41454
1212
root 67.5129 16.435 -5.12971 -1451.81 -93.5551 1464.43
lowerback 18.4799 -0.985405 1.82943
upperback 5.6859 -1.36975 -1.18999
thorax -4.29799 -0.811612 -1.99384
lowerneck 6.13275 0.741317 2.92693
upperneck -16.753 1.27013 0.851945
head -6.07049 0.255828 -0.292772
rclavicle -1.11319e-014 -2.3059e-014
rhumerus -30.4425 -0.963258 -89.7508
rradius 33.4239
rwrist 0.0400161
rhand -21.748 -8.61155
rfingers 7.12502
rthumb 4.65208 -38.5405
lclavicle -1.11319e-014 -2.3059e-014
lhumerus -30.2802 -1.67625 84.138
lradius 30.7231
lwrist 20.5807
lhand -20.8308 9.3425
lfingers 7.12502
lthumb 5.53767 39.2501
rfemur -32.8565 0.121603 21.7783
rtibia 62.4606
rfoot -6.08445 -17.6187
rtoes 28.3332
lfemur -23.0455 13.0862 -24.8554
ltibia 20.3787
lfoot -5.72975 -8.6081
ltoes -7.70525
1213
root 67.5692 16.4191 -5.13915 -1451.61 -93.5389 1464.12
lowerback 18.3227 -0.996668 1.83177
upperback 5.66824 -1.38362 -1.20186
thorax -4.23537 -0.81661 -2.00679
lowerneck 6.09847 0.741954 2.92399
upperneck -16.7233 1.26239 0.81126
head -6.05484 0.256232 -0.304432
rclavicle -1.11319e-014 -1.59028e-015
rhumerus -30.4783 -0.943873 -89.7773
rradius 33.4633
rwrist -0.031854
rhand -21.7041 -8.69394
rfingers 7.12502
rthumb 4.69453 -38.6219
lclavicle -1.11319e-014 -1.59028e-015
lhumerus -30.3095 -1.69836 84.1373
lradius 30.7066
lwrist 20.5435
lhand -20.8253 9.40104
lfingers 7.12502
lthumb 5.54299 39.3085
rfemur -31.5299 0.264753 21.8418
rtibia 60.5888
rfoot -13.7829 -15.2747
rtoes 43.2023
lfemur -23.0233 13.1689 -24.8438
ltibia 20.2698
lfoot -5.95127 -8.71901
ltoes -7.90116
1214
root 67.6259 16.4 -5.14979 -1451.43 -93.5099 1463.83
lowerback 18.1583 -1.00641 1.83593
upperback 5.64841 -1.39504 -1.21401
thorax -4.17112 -0.820286 -2.02175
lowerneck 6.06125 0.736678 2.93726
upperneck -16.6677 1.24827 0.767121
head -6.03051 0.253576 -0.31938
rclavicle 2.62396e-014 4.49253e-014
rhumerus -30.5146 -0.923658 -89.8077
rradius 33.5114
rwrist -0.126768
rhand -21.6167 -8.82924
rfingers 7.12502
rthumb 4.77885 -38.7553
lclavicle 2.62396e-014 4.49253e-014
lhumerus -30.3268 -1.7466 84.1434
lradius 30.6847
lwrist 20.5134
lhand -20.831 9.48149
lfingers 7.12502
lthumb 5.53749 39.3891
rfemur -30.1898 0.360024 21.9371
rtibia 58.7524
rfoot -20.4561 -9.44251
rtoes 51.0637
lfemur -23.0098 13.2052 -24.8161
ltibia 20.2118
lfoot -6.24091 -8.84129
ltoes -8.11803
1215
root 67.6825 16.3793 -5.16126 -1451.32 -93.4706 1463.6
lowerback 17.9951 -1.01459 1.84667
upperback 5.62095 -1.40273 -1.22629
thorax -4.11545 -0.822061 -2.04134
lowerneck 6.01849 0.724622 2.9654
upperneck -16.5703 1.22725 0.724017
head -5.99213 0.247832 -0.335909
rclavicle 6.36111e-015 3.02153e-014
rhumerus -30.5627 -0.912143 -89.8376
rradius 33.5587
rwrist -0.219554
rhand -21.5018 -8.982
rfingers 7.12502
rthumb 4.88988 -38.9056
lclavicle 6.36111e-015 3.02153e-014
lhumerus -30.3489 -1.81413 84.1537
lradius 30.6663
lwrist 20.4882
lhand -20.8227 9.59323
lfingers 7.12502
lthumb 5.54553 39.5007
rfemur -28.8556 0.398944 22.0601
rtibia 56.9879
rfoot -23.9647 -4.1141
rtoes 53.8062
lfemur -22.9735 13.1843 -24.7641
ltibia 20.1543
lfoot -6.57473 -8.98097
ltoes -8.32538
1216
root 67.7384 16.3603 -5.17379 -1451.2 -93.4224 1463.35
lowerback 17.8187 -1.02034 1.85521
upperback 5.59174 -1.40755 -1.23841
thorax -4.05446 -0.822275 -2.06029
lowerneck 5.96928 0.705143 3.00116
upperneck -16.4336 1.19845 0.688237
head -5.94043 0.238432 -0.350776
rclavicle 1.15295e-014 0
rhumerus -30.6105 -0.912127 -89.865
rradius 33.5909
rwrist -0.293234
rhand -21.3747 -9.1109
rfingers 7.12502
rthumb 5.01258 -39.0316
lclavicle 1.15295e-014 0
lhumerus -30.3478 -1.88099 84.1654
lradius 30.626
lwrist 20.4565
lhand -20.8007 9.68834
lfingers 7.12502
lthumb 5.56682 39.5952
rfemur -27.5751 0.407894 22.1932
rtibia 55.3149
rfoot -25.7947 -0.74343
rtoes 55.0252
lfemur -22.8842 13.1116 -24.6917
ltibia 20.0323
lfoot -6.93148 -9.15812
ltoes -8.54343
1217
root 67.793 16.3436 -5.18743 -1451.23 -93.3696 1463.26
lowerback 17.6297 -1.02425 1.86822
upperback 5.56329 -1.409 -1.24539
thorax -3.98563 -0.820704 -2.07725
lowerneck 5.88294 0.685661 3.03903
upperneck -16.2391 1.16987 0.660355
head -5.8643 0.229953 -0.363274
rclavicle 5.1684e-015 -1.59028e-014
rhumerus -30.6456 -0.939043 -89.8823
rradius 33.5852
rwrist -0.317447
rhand -21.2584 -9.19037
rfingers 7.12502
rthumb 5.12482 -39.1084
lclavicle 5.1684e-015 -1.59028e-014
lhumerus -30.3361 -1.95668 84.1789
lradius 30.5866
lwrist 20.4354
lhand -20.7484 9.76923
lfingers 7.12502
lthumb 5.61724 39.6748
rfemur -26.3606 0.401682 22.3481
rtibia 53.723
rfoot -26.7565 1.13056
rtoes 55.6515
lfemur -22.7304 13.0259 -24.6007
ltibia 19.8147
lfoot -7.31048 -9.39111
ltoes -8.7109
1218
root 67.8462 16.3281 -5.20291 -1451.46 -93.3058 1463.35
lowerback 17.4218 -1.03267 1.87238
upperback 5.54458 -1.41787 -1.24025
thorax -3.89632 -0.822685 -2.07517
lowerneck 5.73283 0.671792 3.0564
upperneck -15.9761 1.14625 0.648332
head -5.75596 0.225603 -0.367353
rclavicle 4.37326e-015 -9.93923e-015
rhumerus -30.6517 -0.967653 -89.8902
rradius 33.5412
rwrist -0.293049
rhand -21.166 -9.1903
rfingers 7.12502
rthumb 5.21404 -39.1062
lclavicle 4.37326e-015 -9.93923e-015
lhumerus -30.2999 -2.00842 84.1917
lradius 30.5452
lwrist 20.4134
lhand -20.6698 9.81905
lfingers 7.12502
lthumb 5.69316 39.7226
rfemur -25.2036 0.408608 22.526
rtibia 52.1816
rfoot -27.3513 2.31138
rtoes 56.0564
lfemur -22.5236 12.9553 -24.5012
ltibia 19.5059
lfoot -7.6823 -9.68514
ltoes -8.76746
1219
root 67.8986 16.3123 -5.21951 -1451.96 -93.2392 1463.72
lowerback 17.1939 -1.04089 1.88652
upperback 5.53303 -1.42502 -1.2288
thorax -3.78858 -0.823661 -2.07288
lowerneck 5.5294 0.662774 3.07002
upperneck -15.6509 1.1281 0.646503
head -5.61929 0.224914 -0.367673
rclavicle -2.78299e-015 -5.96354e-015
rhumerus -30.6414 -1.01588 -89.8896
rradius 33.4648
rwrist -0.226214
rhand -21.1127 -9.13331
rfingers 7.12502
rthumb 5.2655 -39.0479
lclavicle -2.78299e-015 -5.96354e-015
lhumerus -30.2532 -2.06832 84.2016
lradius 30.5182
lwrist 20.4056
lhand -20.5579 9.85457
lfingers 7.12502
lthumb 5.80118 39.7552
rfemur -24.0761 0.431814 22.7346
rtibia 50.6489
rfoot -27.7804 3.0953
rtoes 56.1667
lfemur -22.3076 12.9206 -24.3997
ltibia 19.1668
lfoot -8.05763 -10.0241
ltoes -8.63062
1220
root 67.9505 16.2942 -5.23728 -1452.86 -93.1704 1464.48
lowerback 16.9498 -1.04888 1.91592
upperback 5.52287 -1.42916 -1.20885
thorax -3.67062 -0.822969 -2.0712
lowerneck 5.29916 0.654251 3.08241
upperneck -15.28 1.11028 0.650072
head -5.46423 0.22524 -0.365969
rclavicle 5.96354e-015 1.78906e-014
rhumerus -30.6334 -1.07669 -89.8824
rradius 33.3844
rwrist -0.148079
rhand -21.085 -9.05053
rfingers 7.12502
rthumb 5.29224 -38.9644
lclavicle 5.96354e-015 1.78906e-014
lhumerus -30.1974 -2.13451 84.2082
lradius 30.5033
lwrist 20.4247
lhand -20.4068 9.87842
lfingers 7.12502
lthumb 5.94705 39.775
rfemur -22.96 0.452847 22.9898
rtibia 49.0896
rfoot -28.2235 3.68678
rtoes 56.0111
lfemur -22.1176 12.9321 -24.2969
ltibia 18.8511
lfoot -8.43473 -10.3843
ltoes -8.29115
1221
root 68.0027 16.2718 -5.25558 -1454.08 -93.1004 1465.55
lowerback 16.6942 -1.05584 1.96568
upperback 5.51187 -1.42873 -1.18591
thorax -3.54733 -0.819827 -2.07905
lowerneck 5.04966 0.645396 3.09752
upperneck -14.872 1.09199 0.65688
head -5.29491 0.225899 -0.36358
rclavicle -7.35503e-015 -1.07344e-014
rhumerus -30.6386 -1.14616 -89.8719
rradius 33.318
rwrist -0.0881795
rhand -21.0666 -8.98264
rfingers 7.12502
rthumb 5.31004 -38.8961
lclavicle -7.35503e-015 -1.07344e-014
lhumerus -30.1404 -2.21804 84.2135
lradius 30.5017
lwrist 20.4497
lhand -20.2536 9.91501
lfingers 7.12502
lthumb 6.095 39.8073
rfemur -21.8245 0.449692 23.2828
rtibia 47.4854
rfoot -28.7657 4.33108
rtoes 55.7016
lfemur -21.9753 12.9644 -24.1941
ltibia 18.5942
lfoot -8.78255 -10.7314
ltoes -7.70176
1222
root 68.0553 16.2468 -5.27433 -1455.41 -93.0265 1466.74
lowerback 16.4241 -1.05863 2.02717
upperback 5.49676 -1.42126 -1.16515
thorax -3.42048 -0.812935 -2.09744
lowerneck 4.82502 0.631681 3.12231
upperneck -14.4599 1.06919 0.662407
head -5.12912 0.224129 -0.363064
rclavicle -1.98785e-015 -1.59028e-015
rhumerus -30.6681 -1.21927 -89.8647
rradius 33.2757
rwrist -0.0618987
rhand -21.0633 -8.94355
rfingers 7.12502
rthumb 5.31322 -38.8569
lclavicle -1.98785e-015 -1.59028e-015
lhumerus -30.0626 -2.30796 84.2152
lradius 30.4802
lwrist 20.4634
lhand -20.1135 9.94104
lfingers 7.12502
lthumb 6.23027 39.8294
rfemur -20.6882 0.421332 23.5959
rtibia 45.8438
rfoot -29.5035 4.89453
rtoes 55.305
lfemur -21.8847 13.0033 -24.1009
ltibia 18.4024
lfoot -9.12854 -11.0643
ltoes -7.05054
